<svg xmlns="http://www.w3.org/2000/svg" viewBox="0 0 110.11 110.11"><g id="Layer_2" data-name="Layer 2"><g id="Layer_1-2" data-name="Layer 1"><g id="Regular-M"><path d="M55,0a2.9,2.9,0,0,0-2.88,2.93V21A2.91,2.91,0,1,0,58,21V2.93A2.91,2.91,0,0,0,55,0ZM40.62,1.32a2.69,2.69,0,0,0-2,3.61l1.61,6.15A2.83,2.83,0,0,0,44,12.89,2.61,2.61,0,0,0,45.9,9.42l-1.71-5.9A2.92,2.92,0,0,0,40.62,1.32Zm28.86.14a2.68,2.68,0,0,0-3.56,2.06l-1.66,6a2.84,2.84,0,0,0,2,3.57A2.88,2.88,0,0,0,69.82,11l1.62-6A2.81,2.81,0,0,0,69.48,1.46ZM27.54,7.32a2.89,2.89,0,0,0-1,4l9,15.72a2.8,2.8,0,0,0,4,1.07,2.83,2.83,0,0,0,1.08-3.95L31.49,8.4A3,3,0,0,0,27.54,7.32Zm55.08,0a3,3,0,0,0-4,1l-9,15.77a2.88,2.88,0,1,0,5,2.88l9.08-15.72A2.93,2.93,0,0,0,82.62,7.37Zm-66.9,8.4a2.92,2.92,0,0,0,0,4.1l4.35,4.4a2.81,2.81,0,0,0,4.15.05,2.89,2.89,0,0,0-.05-4.15l-4.35-4.35A2.81,2.81,0,0,0,15.72,15.77Zm78.66.05a2.92,2.92,0,0,0-4.1,0l-4.44,4.39a2.76,2.76,0,0,0,0,4.11,2.74,2.74,0,0,0,4,.05L94.24,20A2.89,2.89,0,0,0,94.38,15.82Zm-87,11.67a2.88,2.88,0,0,0,1,4l15.72,9.09a2.9,2.9,0,1,0,2.88-5L11.33,26.46A2.85,2.85,0,0,0,7.42,27.49Zm95.36.05a2.94,2.94,0,0,0-4-1.08L83.06,35.55a2.9,2.9,0,1,0,2.88,5l15.77-9.09A3,3,0,0,0,102.78,27.54Zm6,13.18a2.85,2.85,0,0,0-3.52-2.1l-6.1,1.66a2.92,2.92,0,0,0,1.56,5.62l5.91-1.66A2.85,2.85,0,0,0,108.74,40.72Zm-107.42,0a3.08,3.08,0,0,0,2.1,3.57l6,1.71A2.84,2.84,0,0,0,13,43.85a2.93,2.93,0,0,0-2-3.62L5,38.72A2.84,2.84,0,0,0,1.32,40.67ZM110.11,55a2.87,2.87,0,0,0-2.93-2.88H89.06a2.91,2.91,0,1,0,0,5.81h18.12A2.88,2.88,0,0,0,110.11,55ZM0,55A2.91,2.91,0,0,0,2.93,58H21a2.91,2.91,0,1,0,0-5.81H2.93A2.9,2.9,0,0,0,0,55ZM108.74,69.58a2.83,2.83,0,0,0-2-3.66l-6.06-1.71a2.82,2.82,0,0,0-3.56,2.05,3,3,0,0,0,2,3.66l6,1.56A2.86,2.86,0,0,0,108.74,69.58ZM1.37,69.43a3,3,0,0,0,3.56,2L11,70a2.79,2.79,0,0,0,2-3.56,3,3,0,0,0-3.62-2.1L3.56,65.92A2.82,2.82,0,0,0,1.37,69.43ZM102.73,82.57a2.92,2.92,0,0,0-1-4L85.94,69.53a2.9,2.9,0,1,0-2.88,5l15.72,9.08A2.89,2.89,0,0,0,102.73,82.57Zm-95.36,0a2.89,2.89,0,0,0,4,1.07l15.72-9.08a2.86,2.86,0,0,0,1.12-4,2.89,2.89,0,0,0-4-1.08L8.45,78.61A2.89,2.89,0,0,0,7.37,82.57Zm20.17,20.16a2.87,2.87,0,0,0,3.95-1.07l9.09-15.72a2.9,2.9,0,1,0-5-2.88l-9,15.72A2.82,2.82,0,0,0,27.54,102.73Zm55,0a2.87,2.87,0,0,0,1.07-4L74.56,83.06a2.88,2.88,0,1,0-5,2.88l9,15.72A2.88,2.88,0,0,0,82.57,102.73Zm11.77-8.35a3,3,0,0,0,.09-4.15l-4.49-4.39a2.91,2.91,0,0,0-4.2,0,2.86,2.86,0,0,0,.1,4l4.39,4.4A2.8,2.8,0,0,0,94.34,94.38Zm-78.57,0a2.85,2.85,0,0,0,4.05.09L24.27,90a2.75,2.75,0,0,0,.05-4.1,2.85,2.85,0,0,0-4.11,0l-4.34,4.39A2.75,2.75,0,0,0,15.77,94.34ZM55,110.11A2.91,2.91,0,0,0,58,107.18V89.06a2.91,2.91,0,1,0-5.81,0v18.12A2.9,2.9,0,0,0,55,110.11Zm14.45-1.32a2.71,2.71,0,0,0,2-3.57l-1.56-6.15a3,3,0,0,0-3.66-2,2.8,2.8,0,0,0-2,3.56l1.76,6A2.84,2.84,0,0,0,69.48,108.79Zm-29.1-.05a2.92,2.92,0,0,0,3.81-2l1.66-6a2.83,2.83,0,0,0-2-3.56,2.89,2.89,0,0,0-3.57,2l-1.61,6C38.23,106.88,38.77,108.25,40.38,108.74Z"/></g></g></g></svg>