<svg xmlns="http://www.w3.org/2000/svg" viewBox="0 0 106.01 105.96"><g id="Layer_2" data-name="Layer 2"><g id="Layer_1-2" data-name="Layer 1"><g id="Regular-M"><path d="M57.28,4.25v15a4.28,4.28,0,1,1-8.55,0v-15a4.28,4.28,0,0,1,8.55,0ZM25.78,31.84,15.19,21.14a4.23,4.23,0,1,1,6-6l10.6,10.64a4.25,4.25,0,0,1-6,6Zm47.9-5.52,10.69-10.7a4.25,4.25,0,0,1,6,6.06L79.74,32.32a4.39,4.39,0,0,1-6.06,0A4.24,4.24,0,0,1,73.68,26.32Zm28,30.91h-15a4.25,4.25,0,0,1,0-8.5h15a4.25,4.25,0,1,1,0,8.5ZM4.25,48.73H19.38a4.25,4.25,0,1,1,0,8.5H4.25a4.25,4.25,0,0,1,0-8.5Zm75.49,24.9L90.33,84.28a4.3,4.3,0,0,1,0,6,4.38,4.38,0,0,1-6,0L73.68,79.64a4.25,4.25,0,0,1,0-6A4.41,4.41,0,0,1,79.74,73.63ZM15.62,84.28,26.27,73.73a4.23,4.23,0,0,1,6,6L21.63,90.33a4.44,4.44,0,0,1-6,0A4.37,4.37,0,0,1,15.62,84.28Zm41.66,2.39v15a4.28,4.28,0,0,1-8.55,0v-15a4.28,4.28,0,1,1,8.55,0Z"/></g></g></g></svg>